<?xml version="1.0" encoding="UTF-8"?>
<!DOCTYPE svg PUBLIC "-//W3C//DTD SVG 1.1//EN" "http://www.w3.org/Graphics/SVG/1.1/DTD/svg11.dtd">
<!-- Creator: CorelDRAW (Evaluation Version) -->
<svg xmlns="http://www.w3.org/2000/svg" xml:space="preserve" width="210mm" height="297mm" version="1.1" style="shape-rendering:geometricPrecision; text-rendering:geometricPrecision; image-rendering:optimizeQuality; fill-rule:evenodd; clip-rule:evenodd"
viewBox="0 0 21000 29700"
 xmlns:xlink="http://www.w3.org/1999/xlink"
 xmlns:xodm="http://www.corel.com/coreldraw/odm/2003">
 <defs>
  <style type="text/css">
   <![CDATA[
    .str2 {stroke:black;stroke-width:20;stroke-miterlimit:22.9256}
    .str1 {stroke:#008F51;stroke-width:20;stroke-miterlimit:22.9256}
    .str0 {stroke:#00FF90;stroke-width:20;stroke-miterlimit:22.9256}
    .str3 {stroke:white;stroke-width:20;stroke-miterlimit:22.9256}
    .fil2 {fill:black}
    .fil1 {fill:#008F51}
    .fil0 {fill:#00FF90}
    .fil3 {fill:white}
   ]]>
  </style>
 </defs>
 <g id="Layer_x0020_1">
  <metadata id="CorelCorpID_0Corel-Layer"/>
  <g id="_690552672">
   <rect class="fil0 str0" x="3940.15" y="10612.46" width="13736.93" height="6003.24"/>
  </g>
  <g id="_785926720">
   <rect class="fil0 str0" x="7864.98" y="16615.7" width="5887.26" height="3924.83"/>
  </g>
  <g id="_753740176">
   <rect class="fil1 str1" x="3940.15" y="14653.28" width="1962.42" height="1962.42"/>
  </g>
  <g id="_784030808">
   <rect class="fil1 str1" x="5902.57" y="16615.7" width="1962.42" height="1962.42"/>
  </g>
  <g id="_757505008">
   <rect class="fil1 str1" x="7864.98" y="18578.12" width="1962.42" height="1962.42"/>
  </g>
  <g id="_670382840">
   <rect class="fil1 str1" x="9827.4" y="20540.53" width="1962.42" height="1962.42"/>
  </g>
  <g id="_748814480">
   <rect class="fil1 str1" x="11789.82" y="18578.12" width="1962.42" height="1962.42"/>
  </g>
  <g id="_784497840">
   <rect class="fil1 str1" x="13752.24" y="16615.7" width="1962.42" height="1962.42"/>
  </g>
  <g id="_726185584">
   <rect class="fil1 str1" x="15714.65" y="14653.28" width="1962.42" height="1962.42"/>
  </g>
  <g id="_750179360">
   <rect class="fil2 str2" x="15714.65" y="16615.7" width="1962.42" height="1962.42"/>
  </g>
  <g id="_777379880">
   <rect class="fil2 str2" x="13752.24" y="18578.12" width="1962.42" height="1962.42"/>
  </g>
  <g id="_761110464">
   <rect class="fil2 str2" x="11789.82" y="20540.53" width="1962.42" height="1962.42"/>
  </g>
  <g id="_783256416">
   <rect class="fil2 str2" x="9827.4" y="22502.95" width="1962.42" height="1962.42"/>
  </g>
  <g id="_749046192">
   <rect class="fil2 str2" x="7864.98" y="20540.53" width="1962.42" height="1962.42"/>
  </g>
  <g id="_767057296">
   <rect class="fil2 str2" x="5902.57" y="18578.12" width="1962.42" height="1962.42"/>
  </g>
  <g id="_775024720">
   <rect class="fil2 str2" x="3940.15" y="16615.7" width="1962.42" height="1962.42"/>
  </g>
  <g id="_780518816">
   <rect class="fil2 str2" x="1977.73" y="14653.28" width="1962.42" height="1962.42"/>
  </g>
  <g id="_761419368">
   <rect class="fil2 str2" x="1977.73" y="12690.86" width="1962.42" height="1962.42"/>
  </g>
  <g id="_723706600">
   <rect class="fil2 str2" x="17677.07" y="14653.28" width="1962.42" height="1962.42"/>
  </g>
  <g id="_753690616">
   <rect class="fil2 str2" x="17677.07" y="12690.86" width="1962.42" height="1962.42"/>
  </g>
  <g id="_540620600">
   <rect class="fil2 str2" x="17677.07" y="10728.45" width="1962.42" height="1962.42"/>
  </g>
  <g id="_769334984">
   <rect class="fil2 str2" x="1977.73" y="10728.45" width="1962.42" height="1962.42"/>
  </g>
  <g id="_573877440">
   <rect class="fil2 str2" x="3940.15" y="8766.03" width="1962.42" height="1962.42"/>
  </g>
  <g id="_743286352">
   <rect class="fil2 str2" x="5902.57" y="6803.61" width="1962.42" height="1962.42"/>
  </g>
  <g id="_411332976">
   <rect class="fil2 str2" x="7864.98" y="6803.61" width="1962.42" height="1962.42"/>
  </g>
  <g id="_698017080">
   <rect class="fil2 str2" x="15714.65" y="8766.03" width="1962.42" height="1962.42"/>
  </g>
  <g id="_411111432">
   <rect class="fil2 str2" x="13752.24" y="6803.61" width="1962.42" height="1962.42"/>
  </g>
  <g id="_748742376">
   <rect class="fil2 str2" x="11789.82" y="6803.61" width="1962.42" height="1962.42"/>
  </g>
  <g id="_564934712">
   <rect class="fil2 str2" x="9827.4" y="8650.05" width="1962.42" height="1962.42"/>
  </g>
  <g id="_691355448">
   <rect class="fil3 str3" x="5902.57" y="10728.45" width="1962.42" height="1962.42"/>
  </g>
  <g id="_601851808">
   <rect class="fil0 str0" x="5902.57" y="8766.03" width="3924.83" height="1962.42"/>
  </g>
  <g id="_675503936">
   <rect class="fil0 str0" x="11789.82" y="8766.03" width="3924.83" height="1962.42"/>
  </g>
 </g>
</svg>
