<svg viewBox="0 0 17661.76 17661.76" xmlns="http://www.w3.org/2000/svg" preserveAspectRatio="xMidYMid meet">
  <!-- shift content so minX=0, minY=0 -->
  <g transform="translate(-1977.73 -6803.61)" stroke-width="20" stroke-miterlimit="22.926">
    <!-- light blue fill + stroke -->
    <g fill="#8F4F00" stroke="#FF8C00">
      <rect x="3940.15" y="10612.46" width="13736.93" height="6003.24"/>
      <rect x="7864.98" y="16615.7"  width="5887.26"  height="3924.83"/>
      <rect x="5902.57" y="8766.03"   width="3924.83"  height="1962.42"/>
      <rect x="11789.82" y="8766.03"  width="3924.83"  height="1962.42"/>
    </g>

    <!-- dark blue fill + stroke -->
    <g fill="#8F4F00" stroke="#FF8C00">
      <rect x="3940.15"  y="14653.28" width="1962.42" height="1962.42"/>
      <rect x="5902.57"  y="16615.7"  width="1962.42" height="1962.42"/>
      <rect x="7864.98"  y="18578.12" width="1962.42" height="1962.42"/>
      <rect x="9827.4"   y="20540.53" width="1962.42" height="1962.42"/>
      <rect x="11789.82" y="18578.12" width="1962.42" height="1962.42"/>
      <rect x="13752.24" y="16615.7"  width="1962.42" height="1962.42"/>
      <rect x="15714.65" y="14653.28" width="1962.42" height="1962.42"/>
    </g>

    <!-- black fill + stroke -->
    <g fill="#000" stroke="#000">
      <rect x="15714.65" y="16615.7"  width="1962.42" height="1962.42"/>
      <rect x="13752.24" y="18578.12" width="1962.42" height="1962.42"/>
      <rect x="11789.82" y="20540.53" width="1962.42" height="1962.42"/>
      <rect x="9827.4"   y="22502.95" width="1962.42" height="1962.42"/>
      <rect x="7864.98"  y="20540.53" width="1962.42" height="1962.42"/>
      <rect x="5902.57"  y="18578.12" width="1962.42" height="1962.42"/>
      <rect x="3940.15"  y="16615.7"  width="1962.42" height="1962.42"/>
      <rect x="1977.73"  y="14653.28" width="1962.42" height="1962.42"/>
      <rect x="1977.73"  y="12690.86" width="1962.42" height="1962.42"/>
      <rect x="17677.07" y="14653.28" width="1962.42" height="1962.42"/>
      <rect x="17677.07" y="12690.86" width="1962.42" height="1962.42"/>
      <rect x="17677.07" y="10728.45" width="1962.42" height="1962.42"/>
      <rect x="1977.73"  y="10728.45" width="1962.42" height="1962.42"/>
      <rect x="3940.15"  y="8766.03"  width="1962.42" height="1962.42"/>
      <rect x="5902.57"  y="6803.61"  width="1962.42" height="1962.42"/>
      <rect x="7864.98"  y="6803.61"  width="1962.42" height="1962.42"/>
      <rect x="15714.65" y="8766.03"  width="1962.42" height="1962.42"/>
      <rect x="13752.24" y="6803.61"  width="1962.42" height="1962.42"/>
      <rect x="11789.82" y="6803.61"  width="1962.42" height="1962.42"/>
      <rect x="9827.4"   y="8650.05"  width="1962.42" height="1962.42"/>
    </g>

    <!-- white fill + stroke -->
    <g fill="#fff" stroke="#fff">
      <rect x="5903.57" y="10728.45" width="1962.42" height="1962.42"/>
    </g>
  </g>
</svg>
